<svg width="40" height="40" viewBox="0 0 40 40" version="1.1" xmlns="http://www.w3.org/2000/svg"><title>lingot</title><g stroke="none" stroke-width="1" fill="none" fill-rule="evenodd"><g><path d="M11.12 11.56l6.475-3.908a4.387 4.387 0 0 1 4.534 0l6.475 3.907a4.387 4.387 0 0 1 2.12 3.757v9.666a4.387 4.387 0 0 1-2.12 3.756l-6.475 3.907a4.387 4.387 0 0 1-4.534 0l-6.475-3.907A4.387 4.387 0 0 1 9 24.982v-9.666c0-1.538.804-2.962 2.12-3.757z" stroke="#FFF" stroke-width="2" fill="#FC4848"/><path d="M19.89 11.473v3.165c0 .378-.198.728-.52.924l-2.948 1.783a1.08 1.08 0 0 1-1.179-.04l-2.386-1.672a1.08 1.08 0 0 1 .055-1.805l5.333-3.276a1.08 1.08 0 0 1 1.645.92z" fill="#FFF" opacity=".793"/></g></g></svg>