<svg width="40" height="40" viewBox="0 0 40 40" version="1.1" xmlns="http://www.w3.org/2000/svg"><title>bell</title><g stroke="none" stroke-width="1" fill="none" fill-rule="evenodd"><g fill="#FFC800" stroke="#FFF" stroke-width="2"><path d="M28.247 28.928H10.853a2.758 2.758 0 0 1-2.73-3.169 10.31 10.31 0 0 1 3.394-6.21v-4.516a8.033 8.033 0 1 1 16.066 0v4.515a10.302 10.302 0 0 1 3.395 6.212 2.758 2.758 0 0 1-2.73 3.168zm-6.67.172h.329a1.586 1.586 0 0 1 1.248 2.542 4.517 4.517 0 0 1-7.216.004 1.586 1.586 0 0 1 1.268-2.546h4.372z"/></g></g></svg>